<svg xmlns="http://www.w3.org/2000/svg" xml:space="preserve" width="723.34528" height="161.32256" viewBox="0 0 723.34528 161.32256"><path d="M50.276 33.064V86.26c0 4.471-2.167 8.846-5.494 11.716-2.948 2.543-7.01 3.701-11.036 3.566-4.633-.155-9.218-2.022-12.006-5.46-2.545-3.139-4.2-7.248-4.395-11.04V33.064H-3.356V86.26c0 4.471-2.167 8.846-5.493 11.716-2.95 2.543-7.011 3.701-11.037 3.566-4.633-.155-9.218-2.022-12.006-5.46-2.713-3.346-4.414-7.795-4.414-11.786v-51.23h-20.701v85.684h19.79v-5.945c6.363 5.062 12.877 7.8 21.13 8.156 6.043.26 12.101-1.065 17.56-4.202 3.629-2.085 6.999-4.94 9.54-8.242 7.128 8.195 16.16 12.338 27.034 12.455 5.976.065 11.95-1.278 17.057-4.213 9.464-5.439 15.873-15.657 15.873-27.298V33.064Zm224.04 0V82.94c0 10.635-4.857 18.998-16.752 18.601-10.7-.357-18.185-8.6-18.185-19.106v-49.37h-19.443l-.348 85.684h19.79v-5.65c5.243 3.91 11.895 7.023 20.489 7.764 6.534.564 13.146-.71 19.055-4.105 12.937-7.434 15.873-18.375 15.873-32.134v-51.56Zm-125.075 79.74c-5.38 4.664-12.77 7.37-22.822 8.063-16.531-.179-28.763-4.842-39.469-17.83 3.988-4.558 7.977-9.148 11.965-13.706 3.647 4.144 7.347 7.255 11.095 9.365 7.994 4.5 19.298 5.31 25.858-2.073 2.3-2.59 3.692-6.058 4.184-10.397-3.156.057-6.304.06-9.44-.015-9.179-.22-20.425-1.094-29.587-5.089-8.277-3.61-13.572-9.09-15.88-15.864-1.616-4.739-1.897-9.528-.936-13.953 3.253-14.99 18.922-21.157 32.902-20.413 8.508.452 16.864 3.422 23.604 8.929v-7.33h19.89v51.9c0 10.442-2.918 21.088-11.364 28.412m-9.09-42.388c-4.849.27-9.692.503-14.481.398-4.49-.098-9.991-.491-14.472-2.285-4.049-1.62-6.64-4.082-7.769-7.124-.79-2.127-.927-4.278-.457-6.265 1.591-6.73 9.255-9.5 16.094-9.166 4.698.23 9.303 1.9 12.781 5.024 5.19 4.661 7.11 11.768 8.304 19.418m50.079 42.532c5.921 0 10.722-4.8 10.722-10.722s-4.8-10.722-10.722-10.722-10.722 4.8-10.722 10.722 4.8 10.722 10.722 10.722m0-58.582c5.921 0 10.722-4.8 10.722-10.722s-4.8-10.722-10.722-10.722-10.722 4.8-10.722 10.722 4.8 10.722 10.722 10.722m249.843 66.398c25.09 0 45.429-20.149 45.429-45.003 0-24.856-20.34-45.004-45.43-45.004s-45.429 20.148-45.429 45.004c0 24.854 20.34 45.003 45.43 45.003m0-19.446c13.425 0 24.309-11.443 24.309-25.557 0-14.116-10.884-25.558-24.31-25.558s-24.309 11.442-24.309 25.558c0 14.114 10.884 25.557 24.31 25.557M303.74 118.789l22.073-.04 23.071-58.538 23.272 58.451 22.062-.04-34.73-79.766C351.293 20.03 345.207 0 320.12 0h-9.935v19.692h5.39c9.212 0 12.345 1.113 18.04 9.358l4.008 8.42z" style="fill:#b61d23;fill-opacity:1;fill-rule:evenodd;stroke:none;stroke-width:1" transform="matrix(1.33333 0 0 -1.33333 76.01 161.323)"/></svg>