<?xml version="1.0" encoding="UTF-8"?>
<svg id="Layer_2" data-name="Layer 2" xmlns="http://www.w3.org/2000/svg" viewBox="0 0 183.5 183.5">
  <defs>
    <style>
      .cls-1 {
        fill: #fff;
      }

      .cls-2 {
        fill: #e72511;
      }
    </style>
  </defs>
  <g id="_레이어_1" data-name="레이어 1">
    <g>
      <circle class="cls-2" cx="91.75" cy="91.75" r="91.75"/>
      <g>
        <path class="cls-1" d="M65.29,71.47c-2.08.39-3.89,2.32-4.05,4.32-.16,2,1.4,3.3,3.47,2.92,2.08-.39,3.89-2.32,4.05-4.32.16-2-1.4-3.3-3.47-2.92Z"/>
        <path class="cls-1" d="M79.94,80.35c-.86.16-1.86.34-5.72,4.86.95-1.74,1.25-3.17.09-3.95-1.22-.82-3.33-.19-4.5.58-.73.48-.75.71-.87,1.62-.1.59-.64,1.92-1.02,2.66l-1.18,2.5c-4.44,7.75-6.92,9.86-7.65,10.75-.76.82-1.38,1.3-1.81,1.38-.32.06-.46-.17-.43-.59.05-.63.28-1.51.79-2.64.84-1.92,2.18-4.77,3.24-6.69.57-1.15,2.05-3.83,2.05-3.83,1.39-3.12-1.25-4.2-2.8-3.97-.45.07-5.32.63-10.89,1.58,3.05-12.74,2.79-10.84,5.96-19.01,1.55-3.99,1.37-4.9.07-6.41-1.31-1.51-1.07-3.17-2.55-3.3-3.45-.31-15.38,16.91-24.97,33.65-4.52,1.36-9.05,2.97-13.22,4.86-2.77,1.26-2.24,3.57-1.99,4.75.35,1.66,2.15,2.39,3.57,1.58,2.16-1.22,4.65-2.38,7.31-3.46-.08.18-.11.28-.08.26-3.64,6.85-7.73,16.41-9.06,20.65-.75,2.37.44,4.49,2.48,5.42,2.04.93,3.43-.05,4.11-3.24.85-3.96,6.01-16.23,11.23-26.14,0,0,.03-.04.07-.11,3.15-1.01,6.33-1.92,9.34-2.71-1.84,7.81-2.31,11.04-2.29,13.72.02,2.64.99,5.72,3.88,5.3,2.89-.42,2.42-3.13,2.74-5.65.73-5.76.85-8.26,2.21-14.85.03,0,.07-.08.12-.19,3.21-.76,5.95-1.34,7.86-1.72-.27.58-.58,1.22-.91,1.9-1.27,2.58-2.63,5.74-3.51,8.04-.82,2.28-1.28,4.08-1.4,5.61-.27,3.38,1.16,5.19,3.69,4.72,1.89-.35,4.78-2.91,8.04-7.99-.36,1.21-.59,2.2-.62,2.82-.1,2.63,1.2,4.8,5.46,1.92.42-.29.48-.71.49-1.55.23-2.85,1.37-6.62,3.91-10.47,1.99-2.97,3.39-4.66,5.2-5.44,3.22-1.39,5.27-.96,7.07-3.13,1.76-2.12-1.91-4.41-3.52-4.11ZM42.9,85.78c-2.25.46-4.63.98-7.07,1.57,4.21-7.5,8.87-15.03,13.21-20.93-2.16,5.3-4.33,12.41-6.14,19.36Z"/>
        <path class="cls-1" d="M168.6,88.8c-.93,1.51-1.75,2.78-2.94,4.07-1.07,1.17-1.93,1.63-2.39,1.47-1.22-.44-.53-2.2.74-4.78.59-1.21,1.42-2.78,2.18-4.12,1.08-1.75,1.3-2.24,1.38-2.87.11-.89-.45-1.49-2.12-2.18-1.06-.47-1.16-.56-1.59-1.79-.61-1.51-1.9-2.26-3.47-2.05-2.4.33-6.15,3.24-9.47,7.35-1.22,1.37-5.35,6.95-5.86,7.65l-.64.86c-1.81,2.47-2.31,3.05-3.12,3.94-.79.78-1.44,1.23-1.87,1.29-.33.05-.45-.19-.4-.61.08-.63.35-1.49.92-2.6.93-1.88,2.41-4.66,3.55-6.52.62-1.12,1.71-3.14,1.79-3.36l.61-1.07c1.56-2.81-.83-4.16-2.63-4.02-.71.06-1.89.57-2.48,1.01-.47.32-.54.43-.67,1.07-.16.8-1.23,3.13-2.34,5.19-1.39,2.51-2.9,5.61-3.88,7.86-.93,2.24-1.47,4.02-1.67,5.54-.43,3.36.91,5.24,3.46,4.89,1.9-.26,3.94-2.09,6.44-4.96.8-.92,1.69-2.17,2.54-3.49-.46,3.74,1.41,6.33,4.59,5.88,2.12-.29,3.91-1.86,6.21-4.39.31-.3.43-.42.59-.44.16-.02.31.11.32.42l.12.34c.32,1.71,1.6,2.51,3.45,2.26,2.28-.32,4.79-2.01,7.52-5.49,2.22-2.73,3.1-4.73,3.56-5.97.53-1.43-1.47-1.94-2.41-.39ZM155.57,93.39c-1.61,2.13-3.11,3.47-3.98,3.59-.54.08-.85-.45-.75-1.24.25-1.94,3.39-7.8,5.73-10.7,1.59-2.02,3.27-3.44,4.03-3.55.6-.08.82.25.72,1.04-.22,1.73-3.58,8.08-5.75,10.86Z"/>
        <path class="cls-1" d="M146.8,75.87c2.08-.39,3.89-2.32,4.05-4.32.16-2-1.4-3.3-3.47-2.92-2.08.39-3.89,2.32-4.05,4.32-.16,2,1.4,3.3,3.47,2.92Z"/>
        <path class="cls-1" d="M116.33,84.48c-.29.04-.59.09-.89.14,3.05-12.77,2.8-10.86,5.97-19.03,1.55-3.99,1.37-4.9.07-6.41-1.3-1.51-1.07-3.17-2.55-3.3-3.44-.31-15.32,16.83-24.91,33.54-4.51,1.36-9.04,2.99-13.19,4.95-2.6,1.23-2.07,3.54-1.82,4.72.34,1.66,2.05,2.41,3.38,1.62,2.14-1.27,4.63-2.46,7.28-3.56-.12.25-7.29,14.48-9.19,21.03-.69,2.39.44,4.49,2.48,5.42,2.04.93,3.43-.05,4.11-3.24.85-3.96,7.67-19.83,11.41-26.42,3.15-1.01,6.31-1.91,9.25-2.68,0,.06-2.29,9.2-2.3,13.86,0,2.64.99,5.72,3.88,5.3,2.89-.42,2.42-3.13,2.74-5.65.74-5.76.85-8.26,2.21-14.85.04-.01.1-.13.16-.31.76-.17,1.48-.34,2.16-.49,3.61-.79,4.64-.76,4.88-3.6.15-1.74-3.88-1.25-5.12-1.06ZM115.25,66.42c-2.16,5.29-4.32,12.39-6.13,19.32-2.21.43-4.57.93-7.02,1.52,4.2-7.47,8.83-14.96,13.16-20.84Z"/>
        <path class="cls-1" d="M120.91,107.64c-1.87.2-5.94-.73-6.62-3.99-.24-1.06,1.29-3.89,1.62-4.38.55-.84,1.41-.34,1.7.08.64.94,4.08,4.02,6.06,2.03,1.27-1.28-.71-2.96-1.53-4.32-3.06-5.04,1.07-10.89,2.38-12.18,2.82-2.78,4.81-3.03,6.21-3.07,4.02-.13,5.41,2.14,5.11,3.49-.33,1.47-1.12,2.34-1.66,2.93-.39.42-1.52.54-1.87.03-.86-1.26-1.36-2.93-3.83-1.93-1.99.8-2.1,3.52-1.67,4.84.7,2.12,3.51,3.72,3.49,6.77-.06,7.89-6.98,9.46-9.36,9.71Z"/>
      </g>
    </g>
  </g>
</svg>