<svg width="243" height="77" viewBox="0 0 243 77" fill="none" xmlns="http://www.w3.org/2000/svg">
<g id="logo">
<path id="Vector" d="M96.0442 23.5723H82.4277V75.7415H96.0442V23.5723Z" fill="black"/>
<path id="Vector_2" d="M56.7749 5.6936C51.1744 2.46869 44.6847 0.849609 37.3191 0.849609C29.9535 0.849609 23.3709 2.46869 17.8102 5.6936C12.2495 8.91851 7.88319 13.3909 4.73788 19.0976C1.57929 24.8175 0 31.4133 0 38.9248C0 46.4363 1.57929 53.0321 4.73788 58.752C7.89647 64.4719 12.2495 68.931 17.8102 72.156C23.3709 75.3809 29.8739 76.9999 37.3191 76.9999C44.7643 76.9999 51.1744 75.3941 56.7749 72.156C62.3755 68.931 66.7285 64.4586 69.8472 58.752C72.966 53.0321 74.532 46.4363 74.532 38.9248C74.532 31.4133 72.9793 24.8175 69.8472 19.0976C66.7285 13.3777 62.3622 8.91851 56.7749 5.6936ZM54.2667 57.9557C50.0464 62.5874 44.3928 64.8966 37.3058 64.8966C30.2189 64.8966 24.5388 62.5874 20.2919 57.9557C16.0451 53.3241 13.9084 46.9804 13.9084 38.9248C13.9084 30.8691 16.0318 24.5122 20.2919 19.8938C24.5388 15.2622 30.2189 12.953 37.3058 12.953C44.3928 12.953 50.0464 15.2622 54.2667 19.8938C58.4869 24.5255 60.5971 30.8691 60.5971 38.9248C60.5971 46.9804 58.4869 53.3373 54.2667 57.9557Z" fill="black"/>
<path id="Vector_3" d="M147.59 27.8825C143.264 24.1666 137.345 22.3086 129.833 22.3086C125.44 22.3086 121.472 23.0651 117.929 24.5647C114.385 26.0776 111.492 28.2276 109.263 31.0278C107.033 33.828 105.732 37.1326 105.387 40.9149H118.685C119.176 38.3933 120.45 36.4823 122.507 35.1817C124.564 33.8811 126.967 33.2308 129.74 33.2308C132.793 33.2308 135.341 34.0669 137.398 35.7524C139.455 37.4378 140.477 40.0655 140.477 43.6355V44.8962H127.086C119.428 44.8962 113.682 46.4091 109.86 49.4217C106.038 52.4343 104.113 56.3626 104.113 61.2066C104.113 64.0864 104.817 66.7142 106.237 69.0897C107.657 71.4785 109.82 73.3896 112.726 74.8229C115.633 76.2562 119.349 76.9861 123.888 76.9861C128.426 76.9861 131.877 76.0704 134.677 74.2522C137.478 72.4341 139.654 70.1116 141.22 67.3114L142.494 75.7253H154.08V43.6487C154.08 36.8539 151.917 31.5852 147.59 27.8692V27.8825ZM136.044 62.693C133.881 65.2145 130.855 66.4753 126.953 66.4753C124.405 66.4753 122.348 65.9179 120.782 64.7898C119.216 63.675 118.446 62.0958 118.446 60.052C118.446 58.1542 119.229 56.5617 120.782 55.2611C122.335 53.9605 124.923 53.3102 128.546 53.3102H140.132C139.561 57.0261 138.194 60.1449 136.044 62.6664V62.693Z" fill="black"/>
<path id="Vector_4" d="M204.79 30.7229C202.945 28.0554 200.543 25.9851 197.557 24.512C194.584 23.0389 191.107 22.3089 187.139 22.3089C182.175 22.3089 177.743 23.4901 173.841 25.8258C169.939 28.1748 166.86 31.3997 164.591 35.5006C162.321 39.6014 161.193 44.2861 161.193 49.5415C161.193 54.7969 162.321 59.4949 164.591 63.6356C166.86 67.7762 169.939 71.0276 173.841 73.4165C177.743 75.8053 182.175 76.9864 187.139 76.9864C191.598 76.9864 195.234 76.1105 198.035 74.3587C200.835 72.6069 203.091 70.5764 204.79 68.254L206.276 75.7257H218.393V0H204.777V30.7096L204.79 30.7229ZM200.808 60.8486C198.008 63.755 194.412 65.2148 190.019 65.2148C185.626 65.2148 182.109 63.7417 179.282 60.7955C176.442 57.8493 175.035 54.1068 175.035 49.5415C175.035 44.9762 176.455 41.2735 179.282 38.3937C182.122 35.5138 185.692 34.0805 190.019 34.0805C194.345 34.0805 198.008 35.5404 200.808 38.4468C203.609 41.3532 205.002 45.0956 205.002 49.6477C205.002 54.1997 203.595 57.9422 200.808 60.8486Z" fill="black"/>
<path id="Vector_5" d="M240.465 62.4524C238.872 60.8068 236.829 59.9707 234.347 59.9707C231.865 59.9707 229.821 60.7935 228.229 62.4524C226.636 64.1113 225.84 66.1285 225.84 68.5439C225.84 70.9593 226.636 72.8571 228.229 74.516C229.821 76.1749 231.865 76.9977 234.347 76.9977C236.829 76.9977 238.872 76.1749 240.465 74.516C242.057 72.8703 242.854 70.8796 242.854 68.5439C242.854 66.2082 242.057 64.1113 240.465 62.4524Z" fill="black"/>
<path id="Vector_6" d="M89.2354 0.0117188C86.7537 0.0117188 84.7099 0.807984 83.1173 2.38726C81.5248 3.96654 80.7285 5.99704 80.7285 8.46549C80.7285 10.9339 81.5248 12.9777 83.1173 14.5968C84.7099 16.2159 86.7537 17.0255 89.2354 17.0255C91.7172 17.0255 93.761 16.2159 95.3536 14.5968C96.9461 12.9777 97.7424 10.9339 97.7424 8.46549C97.7424 5.99704 96.9461 3.96654 95.3536 2.38726C93.761 0.807984 91.7172 0.0117188 89.2354 0.0117188Z" fill="black"/>
</g>
</svg>
